<?xml version="1.0" encoding="UTF-8" standalone="no"?>
<svg width="100%" height="100%" viewBox="0 0 176 176" version="1.1" xmlns="http://www.w3.org/2000/svg" style="fill-rule:evenodd;clip-rule:evenodd;">
  <!-- SingulHub Dark Icon - Hub connected nodes motif (lighter colors for dark bg) -->
  <circle cx="88" cy="88" r="22" fill="#a5b4fc"/>
  <!-- Satellite nodes -->
  <circle cx="88" cy="30" r="13" fill="#a5b4fc"/>
  <circle cx="88" cy="146" r="13" fill="#a5b4fc"/>
  <circle cx="30" cy="88" r="13" fill="#a5b4fc"/>
  <circle cx="146" cy="88" r="13" fill="#a5b4fc"/>
  <circle cx="44" cy="44" r="10" fill="#c7d2fe"/>
  <circle cx="132" cy="44" r="10" fill="#c7d2fe"/>
  <circle cx="44" cy="132" r="10" fill="#c7d2fe"/>
  <circle cx="132" cy="132" r="10" fill="#c7d2fe"/>
  <!-- Connector lines -->
  <line x1="88" y1="43" x2="88" y2="66" stroke="#a5b4fc" stroke-width="5" stroke-linecap="round"/>
  <line x1="88" y1="110" x2="88" y2="133" stroke="#a5b4fc" stroke-width="5" stroke-linecap="round"/>
  <line x1="43" y1="88" x2="66" y2="88" stroke="#a5b4fc" stroke-width="5" stroke-linecap="round"/>
  <line x1="110" y1="88" x2="133" y2="88" stroke="#a5b4fc" stroke-width="5" stroke-linecap="round"/>
  <line x1="51" y1="51" x2="72" y2="72" stroke="#c7d2fe" stroke-width="4" stroke-linecap="round"/>
  <line x1="125" y1="51" x2="104" y2="72" stroke="#c7d2fe" stroke-width="4" stroke-linecap="round"/>
  <line x1="51" y1="125" x2="72" y2="104" stroke="#c7d2fe" stroke-width="4" stroke-linecap="round"/>
  <line x1="125" y1="125" x2="104" y2="104" stroke="#c7d2fe" stroke-width="4" stroke-linecap="round"/>
</svg>
